<?xml version="1.0" standalone="yes"?>
<svg xmlns="http://www.w3.org/2000/svg" width="225" height="225">
<path style="fill:#ffffff; stroke:none;" d="M0 0L0 225L225 225L225 0L0 0z"/>
<path style="fill:#eaa3ad; stroke:none;" d="M110 27L111 28L110 27z"/>
<path style="fill:#df6d7e; stroke:none;" d="M111 27L112 28L111 27z"/>
<path style="fill:#d0012f; stroke:none;" d="M29 57C32.1969 82.2956 34.815 107.68 37.8449 133C39.0147 142.776 37.9603 156.814 41.8935 165.815C43.6244 169.776 48.4882 171.44 52 173.424C60.948 178.48 69.9921 183.358 79 188.306C88.1754 193.345 101.521 204.681 112 205.767C117.32 206.318 124.5 200.217 129 197.769C141.714 190.856 154.286 183.683 167 176.769C171.691 174.219 179.874 171.429 182.682 166.671C185.237 162.343 184.642 154.922 185.282 150C187.097 136.028 188.481 121.992 190.155 108C191.59 96.0116 192.725 83.9801 194.282 72C194.738 68.4866 197.033 60.8014 194.933 57.6991C192.794 54.5385 186.379 53.5146 183 52.3079L152 41.3079C141.336 37.5127 121.175 25.5497 110 28.1867C82.5166 34.6723 55.7549 47.9489 29 57z"/>
<path style="fill:#df6d7e; stroke:none;" d="M113 27L114 28L113 27z"/>
<path style="fill:#eaa3ad; stroke:none;" d="M114 27L115 28L114 27z"/>
<path style="fill:#df6d7e; stroke:none;" d="M108 28L109 29L108 28M116 28L117 29L116 28z"/>
<path style="fill:#eaa3ad; stroke:none;" d="M117 28L118 29L117 28M105 29L106 30L105 29z"/>
<path style="fill:#d93e58; stroke:none;" d="M106 29L107 30L106 29z"/>
<path style="fill:#eaa3ad; stroke:none;" d="M119 29L120 30L119 29M102 30L103 31L102 30z"/>
<path style="fill:#d93e58; stroke:none;" d="M103 30L104 31L103 30M121 30L122 31L121 30z"/>
<path style="fill:#eaa3ad; stroke:none;" d="M122 30L123 31L122 30M99 31L100 32L99 31z"/>
<path style="fill:#df6d7e; stroke:none;" d="M100 31L101 32L100 31z"/>
<path style="fill:#d93e58; stroke:none;" d="M124 31L125 32L124 31z"/>
<path style="fill:#eaa3ad; stroke:none;" d="M125 31L126 32L125 31M96 32L97 33L96 32z"/>
<path style="fill:#df6d7e; stroke:none;" d="M97 32L98 33L97 32M127 32L128 33L127 32z"/>
<path style="fill:#eaa3ad; stroke:none;" d="M128 32L129 33L128 32M93 33L94 34L93 33z"/>
<path style="fill:#df6d7e; stroke:none;" d="M94 33L95 34L94 33M130 33L131 34L130 33z"/>
<path style="fill:#eaa3ad; stroke:none;" d="M131 33L132 34L131 33M91 34L92 35L91 34M133 34L134 35L133 34M88 35L89 36L88 35z"/>
<path style="fill:#d93e58; stroke:none;" d="M89 35L90 36L89 35M135 35L136 36L135 35z"/>
<path style="fill:#eaa3ad; stroke:none;" d="M136 35L137 36L136 35M85 36L86 37L85 36z"/>
<path style="fill:#d93e58; stroke:none;" d="M86 36L87 37L86 36M138 36L139 37L138 36z"/>
<path style="fill:#eaa3ad; stroke:none;" d="M139 36L140 37L139 36M82 37L83 38L82 37z"/>
<path style="fill:#df6d7e; stroke:none;" d="M83 37L84 38L83 37M141 37L142 38L141 37z"/>
<path style="fill:#eaa3ad; stroke:none;" d="M142 37L143 38L142 37M79 38L80 39L79 38z"/>
<path style="fill:#df6d7e; stroke:none;" d="M80 38L81 39L80 38M144 38L145 39L144 38z"/>
<path style="fill:#eaa3ad; stroke:none;" d="M145 38L146 39L145 38M77 39L78 40L77 39M147 39L148 40L147 39M74 40L75 41L74 40z"/>
<path style="fill:#d93e58; stroke:none;" d="M75 40L76 41L75 40M149 40L150 41L149 40z"/>
<path style="fill:#eaa3ad; stroke:none;" d="M150 40L151 41L150 40M71 41L72 42L71 41z"/>
<path style="fill:#d93e58; stroke:none;" d="M72 41L73 42L72 41M152 41L153 42L152 41z"/>
<path style="fill:#eaa3ad; stroke:none;" d="M153 41L154 42L153 41M68 42L69 43L68 42z"/>
<path style="fill:#df6d7e; stroke:none;" d="M69 42L70 43L69 42M155 42L156 43L155 42z"/>
<path style="fill:#eaa3ad; stroke:none;" d="M156 42L157 43L156 42M65 43L66 44L65 43z"/>
<path style="fill:#df6d7e; stroke:none;" d="M66 43L67 44L66 43M158 43L159 44L158 43z"/>
<path style="fill:#eaa3ad; stroke:none;" d="M159 43L160 44L159 43M63 44L64 45L63 44M161 44L162 45L161 44M60 45L61 46L60 45z"/>
<path style="fill:#d93e58; stroke:none;" d="M61 45L62 46L61 45z"/>
<path style="fill:#eaa3ad; stroke:none;" d="M164 45L165 46L164 45M57 46L58 47L57 46z"/>
<path style="fill:#d93e58; stroke:none;" d="M58 46L59 47L58 46M166 46L167 47L166 46z"/>
<path style="fill:#eaa3ad; stroke:none;" d="M167 46L168 47L167 46M54 47L55 48L54 47z"/>
<path style="fill:#df6d7e; stroke:none;" d="M55 47L56 48L55 47z"/>
<path style="fill:#eaa3ad; stroke:none;" d="M112 47L113 48L112 47z"/>
<path style="fill:#df6d7e; stroke:none;" d="M169 47L170 48L169 47z"/>
<path style="fill:#eaa3ad; stroke:none;" d="M170 47L171 48L170 47M51 48L52 49L51 48z"/>
<path style="fill:#df6d7e; stroke:none;" d="M52 48L53 49L52 48z"/>
<path style="fill:#d93e58; stroke:none;" d="M111 48L112 49L111 48z"/>
<path style="fill:#ffffff; stroke:none;" d="M112 48L77.6944 125L61 164C65.6875 164 75.4071 165.861 79.3009 162.972C86.1957 157.858 83.7565 143.695 91.2747 139.028C98.865 134.315 120.093 137.629 128.996 138.019C140.575 138.527 138.477 155.809 144.994 162.397C148.57 166.012 159.247 164 164 164L130.306 87L112 48z"/>
<path style="fill:#d93e58; stroke:none;" d="M113 48L114 49L113 48z"/>
<path style="fill:#df6d7e; stroke:none;" d="M172 48L173 49L172 48z"/>
<path style="fill:#eaa3ad; stroke:none;" d="M173 48L174 49L173 48M49 49L50 50L49 49M111 49L112 50L111 49M113 49L114 50L113 49M175 49L176 50L175 49M46 50L47 51L46 50z"/>
<path style="fill:#d93e58; stroke:none;" d="M47 50L48 51L47 50M110 50L111 51L110 50z"/>
<path style="fill:#eaa3ad; stroke:none;" d="M178 50L179 51L178 50M43 51L44 52L43 51z"/>
<path style="fill:#d93e58; stroke:none;" d="M44 51L45 52L44 51z"/>
<path style="fill:#eaa3ad; stroke:none;" d="M110 51L111 52L110 51M114 51L115 52L114 51z"/>
<path style="fill:#d93e58; stroke:none;" d="M180 51L181 52L180 51z"/>
<path style="fill:#eaa3ad; stroke:none;" d="M181 51L182 52L181 51M40 52L41 53L40 52z"/>
<path style="fill:#df6d7e; stroke:none;" d="M41 52L42 53L41 52M183 52L184 53L183 52z"/>
<path style="fill:#eaa3ad; stroke:none;" d="M184 52L185 53L184 52M37 53L38 54L37 53z"/>
<path style="fill:#df6d7e; stroke:none;" d="M38 53L39 54L38 53z"/>
<path style="fill:#eaa3ad; stroke:none;" d="M109 53L110 54L109 53M115 53L116 54L115 53z"/>
<path style="fill:#df6d7e; stroke:none;" d="M186 53L187 54L186 53z"/>
<path style="fill:#eaa3ad; stroke:none;" d="M187 53L188 54L187 53M35 54L36 55L35 54M189 54L190 55L189 54M32 55L33 56L32 55z"/>
<path style="fill:#d93e58; stroke:none;" d="M33 55L34 56L33 55z"/>
<path style="fill:#df6d7e; stroke:none;" d="M108 55L109 56L108 55M116 55L117 56L116 55z"/>
<path style="fill:#d93e58; stroke:none;" d="M191 55L192 56L191 55z"/>
<path style="fill:#eaa3ad; stroke:none;" d="M192 55L193 56L192 55M29 56L30 57L29 56z"/>
<path style="fill:#d93e58; stroke:none;" d="M30 56L31 57L30 56M194 56L195 57L194 56z"/>
<path style="fill:#eaa3ad; stroke:none;" d="M195 56L196 57L195 56M28 57L29 58L28 57z"/>
<path style="fill:#d93e58; stroke:none;" d="M107 57L108 58L107 57M117 57L118 58L117 57z"/>
<path style="fill:#eaa3ad; stroke:none;" d="M196 57L197 58L196 57M107 58L108 59L107 58M117 58L118 59L117 58z"/>
<path style="fill:#d93e58; stroke:none;" d="M106 59L107 60L106 59M29 60L30 61L29 60z"/>
<path style="fill:#eaa3ad; stroke:none;" d="M106 60L107 61L106 60M118 60L119 61L118 60z"/>
<path style="fill:#df6d7e; stroke:none;" d="M29.3333 61.6667L29.6667 62.3333L29.3333 61.6667M195.333 61.6667L195.667 62.3333L195.333 61.6667z"/>
<path style="fill:#eaa3ad; stroke:none;" d="M105 62L106 63L105 62M119 62L120 63L119 62M29 63L29 66L30 66L29 63M195 63L195 66L196 66L195 63z"/>
<path style="fill:#df6d7e; stroke:none;" d="M104 64L105 65L104 64M120 64L121 65L120 64z"/>
<path style="fill:#d93e58; stroke:none;" d="M103 66L104 67L103 66M121 66L122 67L121 66z"/>
<path style="fill:#eaa3ad; stroke:none;" d="M103 67L104 68L103 67M121 67L122 68L121 67z"/>
<path style="fill:#d93e58; stroke:none;" d="M102 68L103 69L102 68M30 69L31 70L30 69z"/>
<path style="fill:#eaa3ad; stroke:none;" d="M102 69L103 70L102 69M122 69L123 70L122 69z"/>
<path style="fill:#df6d7e; stroke:none;" d="M30.3333 70.6667L30.6667 71.3333L30.3333 70.6667z"/>
<path style="fill:#d93e58; stroke:none;" d="M194 70L195 71L194 70z"/>
<path style="fill:#eaa3ad; stroke:none;" d="M101 71L102 72L101 71M123 71L124 72L123 71M194 71L194 75L195 75L194 71M30 72L30 75L31 75L30 72z"/>
<path style="fill:#df6d7e; stroke:none;" d="M100 73L101 74L100 73M124 73L125 74L124 73M99 75L100 76L99 75z"/>
<path style="fill:#d93e58; stroke:none;" d="M125 75L126 76L125 75z"/>
<path style="fill:#eaa3ad; stroke:none;" d="M99 76L100 77L99 76M125 76L126 77L125 76z"/>
<path style="fill:#d93e58; stroke:none;" d="M98 77L99 78L98 77M31 78L32 79L31 78z"/>
<path style="fill:#eaa3ad; stroke:none;" d="M98 78L99 79L98 78M126 78L127 79L126 78z"/>
<path style="fill:#d93e58; stroke:none;" d="M193 78L194 79L193 78z"/>
<path style="fill:#df6d7e; stroke:none;" d="M31 79L32 80L31 79M193.333 79.6667L193.667 80.3333L193.333 79.6667z"/>
<path style="fill:#eaa3ad; stroke:none;" d="M31 80L31 83L32 83L31 80M97 80L98 81L97 80M127 80L128 81L127 80M193.333 81.6667L193.667 82.3333L193.333 81.6667z"/>
<path style="fill:#df6d7e; stroke:none;" d="M96 82L97 83L96 82M128 82L129 83L128 82M95 84L96 85L95 84z"/>
<path style="fill:#d93e58; stroke:none;" d="M129 84L130 85L129 84z"/>
<path style="fill:#eaa3ad; stroke:none;" d="M95 85L96 86L95 85M112 85L113 86L112 85M129 85L130 86L129 85z"/>
<path style="fill:#d93e58; stroke:none;" d="M94 86L95 87L94 86z"/>
<path style="fill:#d0012f; stroke:none;" d="M112 86L98 121L127 121L112 86z"/>
<path style="fill:#d93e58; stroke:none;" d="M32 87L33 88L32 87z"/>
<path style="fill:#eaa3ad; stroke:none;" d="M94 87L95 88L94 87M111 87L112 88L111 87M113 87L114 88L113 87M130 87L131 88L130 87z"/>
<path style="fill:#d93e58; stroke:none;" d="M192 87L193 88L192 87z"/>
<path style="fill:#df6d7e; stroke:none;" d="M32 88L33 89L32 88M192.333 88.6667L192.667 89.3333L192.333 88.6667z"/>
<path style="fill:#eaa3ad; stroke:none;" d="M32 89L32 92L33 92L32 89M93 89L94 90L93 89M110 89L111 90L110 89M114 89L115 90L114 89M131 89L132 90L131 89z"/>
<path style="fill:#d93e58; stroke:none;" d="M110 90L111 91L110 90M114 90L115 91L114 90z"/>
<path style="fill:#eaa3ad; stroke:none;" d="M192 90L192 93L193 93L192 90z"/>
<path style="fill:#df6d7e; stroke:none;" d="M92 91L93 92L92 91M132 91L133 92L132 91M109 92L110 93L109 92z"/>
<path style="fill:#eaa3ad; stroke:none;" d="M115 92L116 93L115 92z"/>
<path style="fill:#df6d7e; stroke:none;" d="M91 93L92 94L91 93z"/>
<path style="fill:#d93e58; stroke:none;" d="M133 93L134 94L133 93z"/>
<path style="fill:#eaa3ad; stroke:none;" d="M91 94L92 95L91 94M108 94L109 95L108 94M116 94L117 95L116 94M133 94L134 95L133 94z"/>
<path style="fill:#d93e58; stroke:none;" d="M33 95L34 96L33 95M90 95L91 96L90 95M108 95L109 96L108 95M116 95L117 96L116 95M191.333 95.6667L191.667 96.3333L191.333 95.6667z"/>
<path style="fill:#df6d7e; stroke:none;" d="M33.3333 96.6667L33.6667 97.3333L33.3333 96.6667z"/>
<path style="fill:#eaa3ad; stroke:none;" d="M90 96L91 97L90 96M107 96L108 97L107 96M117 96L118 97L117 96M134 96L135 97L134 96z"/>
<path style="fill:#df6d7e; stroke:none;" d="M107 97L108 98L107 97M117 97L118 98L117 97M191 97L192 98L191 97z"/>
<path style="fill:#eaa3ad; stroke:none;" d="M33 98L33 101L34 101L33 98M89 98L90 99L89 98M135 98L136 99L135 98M191 98L191 101L192 101L191 98M106 99L107 100L106 99M118 99L119 100L118 99z"/>
<path style="fill:#df6d7e; stroke:none;" d="M88 100L89 101L88 100M136 100L137 101L136 100z"/>
<path style="fill:#eaa3ad; stroke:none;" d="M105 101L106 102L105 101M119 101L120 102L119 101z"/>
<path style="fill:#df6d7e; stroke:none;" d="M87 102L88 103L87 102z"/>
<path style="fill:#d93e58; stroke:none;" d="M105 102L106 103L105 102z"/>
<path style="fill:#df6d7e; stroke:none;" d="M119 102L120 103L119 102z"/>
<path style="fill:#d93e58; stroke:none;" d="M137 102L138 103L137 102z"/>
<path style="fill:#eaa3ad; stroke:none;" d="M87 103L88 104L87 103M137 103L138 104L137 103z"/>
<path style="fill:#d93e58; stroke:none;" d="M34 104L35 105L34 104M86 104L87 105L86 104z"/>
<path style="fill:#df6d7e; stroke:none;" d="M104 104L105 105L104 104z"/>
<path style="fill:#eaa3ad; stroke:none;" d="M120 104L121 105L120 104z"/>
<path style="fill:#df6d7e; stroke:none;" d="M34.3333 105.667L34.6667 106.333L34.3333 105.667z"/>
<path style="fill:#eaa3ad; stroke:none;" d="M86 105L87 106L86 105M138 105L139 106L138 105z"/>
<path style="fill:#df6d7e; stroke:none;" d="M190.333 105.667L190.667 106.333L190.333 105.667z"/>
<path style="fill:#eaa3ad; stroke:none;" d="M103 106L104 107L103 106M121 106L122 107L121 106M34.3333 107.667L34.6667 108.333L34.3333 107.667M85 107L86 108L85 107z"/>
<path style="fill:#d93e58; stroke:none;" d="M103 107L104 108L103 107M121 107L122 108L121 107z"/>
<path style="fill:#eaa3ad; stroke:none;" d="M139 107L140 108L139 107M190 107L190 110L191 110L190 107M102 108L103 109L102 108M122 108L123 109L122 108z"/>
<path style="fill:#df6d7e; stroke:none;" d="M84 109L85 110L84 109M102 109L103 110L102 109M122 109L123 110L122 109M140 109L141 110L140 109M83 111L84 112L83 111z"/>
<path style="fill:#eaa3ad; stroke:none;" d="M101 111L102 112L101 111M123 111L124 112L123 111z"/>
<path style="fill:#d93e58; stroke:none;" d="M141 111L142 112L141 111M35.3333 112.667L35.6667 113.333L35.3333 112.667z"/>
<path style="fill:#eaa3ad; stroke:none;" d="M83 112L84 113L83 112M141 112L142 113L141 112z"/>
<path style="fill:#d93e58; stroke:none;" d="M82 113L83 114L82 113z"/>
<path style="fill:#eaa3ad; stroke:none;" d="M100 113L101 114L100 113M124 113L125 114L124 113z"/>
<path style="fill:#d93e58; stroke:none;" d="M189 113L190 114L189 113z"/>
<path style="fill:#df6d7e; stroke:none;" d="M35 114L36 115L35 114z"/>
<path style="fill:#eaa3ad; stroke:none;" d="M82 114L83 115L82 114z"/>
<path style="fill:#d93e58; stroke:none;" d="M100 114L101 115L100 114z"/>
<path style="fill:#df6d7e; stroke:none;" d="M124 114L125 115L124 114z"/>
<path style="fill:#eaa3ad; stroke:none;" d="M142 114L143 115L142 114z"/>
<path style="fill:#df6d7e; stroke:none;" d="M189 114L190 115L189 114z"/>
<path style="fill:#eaa3ad; stroke:none;" d="M35 115L35 118L36 118L35 115z"/>
<path style="fill:#d93e58; stroke:none;" d="M81 115L82 116L81 115z"/>
<path style="fill:#eaa3ad; stroke:none;" d="M189 115L189 119L190 119L189 115M81 116L82 117L81 116z"/>
<path style="fill:#df6d7e; stroke:none;" d="M99 116L100 117L99 116z"/>
<path style="fill:#eaa3ad; stroke:none;" d="M125 116L126 117L125 116M143 116L144 117L143 116z"/>
<path style="fill:#df6d7e; stroke:none;" d="M80 118L81 119L80 118z"/>
<path style="fill:#eaa3ad; stroke:none;" d="M98 118L99 119L98 118M126 118L127 119L126 118z"/>
<path style="fill:#df6d7e; stroke:none;" d="M144 118L145 119L144 118z"/>
<path style="fill:#d93e58; stroke:none;" d="M98 119L99 120L98 119M126 119L127 120L126 119z"/>
<path style="fill:#df6d7e; stroke:none;" d="M79 120L80 121L79 120z"/>
<path style="fill:#eaa3ad; stroke:none;" d="M97 120L98 121L97 120M127.333 120.667L127.667 121.333L127.333 120.667z"/>
<path style="fill:#d93e58; stroke:none;" d="M145 120L146 121L145 120M36 121L37 122L36 121z"/>
<path style="fill:#df6d7e; stroke:none;" d="M97 121L98 122L97 121z"/>
<path style="fill:#d93e58; stroke:none;" d="M98 121L98 122L127 122L98 121z"/>
<path style="fill:#eaa3ad; stroke:none;" d="M145 121L146 122L145 121z"/>
<path style="fill:#df6d7e; stroke:none;" d="M36.3333 122.667L36.6667 123.333L36.3333 122.667z"/>
<path style="fill:#d93e58; stroke:none;" d="M78 122L79 123L78 122z"/>
<path style="fill:#df6d7e; stroke:none;" d="M188.333 122.667L188.667 123.333L188.333 122.667z"/>
<path style="fill:#eaa3ad; stroke:none;" d="M78 123L79 124L78 123M146 123L147 124L146 123M36 124L36 127L37 127L36 124z"/>
<path style="fill:#d93e58; stroke:none;" d="M77 124L78 125L77 124z"/>
<path style="fill:#eaa3ad; stroke:none;" d="M188 124L188 127L189 127L188 124M77 125L78 126L77 125M147 125L148 126L147 125M76 127L77 128L76 127z"/>
<path style="fill:#df6d7e; stroke:none;" d="M148 127L149 128L148 127M75 129L76 130L75 129z"/>
<path style="fill:#d93e58; stroke:none;" d="M149 129L150 130L149 129M37 130L38 131L37 130z"/>
<path style="fill:#eaa3ad; stroke:none;" d="M149 130L150 131L149 130z"/>
<path style="fill:#d93e58; stroke:none;" d="M187 130L188 131L187 130z"/>
<path style="fill:#df6d7e; stroke:none;" d="M37 131L38 132L37 131z"/>
<path style="fill:#d93e58; stroke:none;" d="M74 131L75 132L74 131z"/>
<path style="fill:#df6d7e; stroke:none;" d="M187 131L188 132L187 131z"/>
<path style="fill:#eaa3ad; stroke:none;" d="M37 132L37 136L38 136L37 132M74 132L75 133L74 132M150 132L151 133L150 132M187 132L187 136L188 136L187 132z"/>
<path style="fill:#d93e58; stroke:none;" d="M73 133L74 134L73 133z"/>
<path style="fill:#eaa3ad; stroke:none;" d="M73 134L74 135L73 134M151 134L152 135L151 134M72 136L73 137L72 136z"/>
<path style="fill:#df6d7e; stroke:none;" d="M152 136L153 137L152 136z"/>
<path style="fill:#d93e58; stroke:none;" d="M38 138L39 139L38 138z"/>
<path style="fill:#df6d7e; stroke:none;" d="M71 138L72 139L71 138z"/>
<path style="fill:#d93e58; stroke:none;" d="M134 138L135 139L134 138M153 138L154 139L153 138z"/>
<path style="fill:#df6d7e; stroke:none;" d="M38.3333 139.667L38.6667 140.333L38.3333 139.667z"/>
<path style="fill:#eaa3ad; stroke:none;" d="M89 139L90 140L89 139M153 139L154 140L153 139z"/>
<path style="fill:#d93e58; stroke:none;" d="M186 139L187 140L186 139z"/>
<path style="fill:#df6d7e; stroke:none;" d="M70 140L71 141L70 140z"/>
<path style="fill:#d93e58; stroke:none;" d="M89 140L90 141L89 140z"/>
<path style="fill:#df6d7e; stroke:none;" d="M135 140L136 141L135 140M186 140L187 141L186 140z"/>
<path style="fill:#eaa3ad; stroke:none;" d="M38 141L38 144L39 144L38 141M70 141L71 142L70 141M154 141L155 142L154 141M186 141L186 144L187 144L186 141z"/>
<path style="fill:#d93e58; stroke:none;" d="M69 142L70 143L69 142z"/>
<path style="fill:#df6d7e; stroke:none;" d="M88 142L89 143L88 142z"/>
<path style="fill:#eaa3ad; stroke:none;" d="M136 142L137 143L136 142M69 143L70 144L69 143z"/>
<path style="fill:#d93e58; stroke:none;" d="M136 143L137 144L136 143z"/>
<path style="fill:#eaa3ad; stroke:none;" d="M155 143L156 144L155 143M87 144L88 145L87 144M68 145L69 146L68 145z"/>
<path style="fill:#d93e58; stroke:none;" d="M87 145L88 146L87 145z"/>
<path style="fill:#df6d7e; stroke:none;" d="M137 145L138 146L137 145M156 145L157 146L156 145z"/>
<path style="fill:#d93e58; stroke:none;" d="M39 147L40 148L39 147z"/>
<path style="fill:#df6d7e; stroke:none;" d="M67 147L68 148L67 147M86 147L87 148L86 147z"/>
<path style="fill:#eaa3ad; stroke:none;" d="M138 147L139 148L138 147z"/>
<path style="fill:#d93e58; stroke:none;" d="M157 147L158 148L157 147z"/>
<path style="fill:#df6d7e; stroke:none;" d="M39.3333 148.667L39.6667 149.333L39.3333 148.667z"/>
<path style="fill:#d93e58; stroke:none;" d="M138 148L139 149L138 148z"/>
<path style="fill:#eaa3ad; stroke:none;" d="M157 148L158 149L157 148z"/>
<path style="fill:#d93e58; stroke:none;" d="M185 148L186 149L185 148M66 149L67 150L66 149z"/>
<path style="fill:#eaa3ad; stroke:none;" d="M85 149L86 150L85 149M185 149L185 153L186 153L185 149M39 150L39 153L40 153L39 150M66 150L67 151L66 150z"/>
<path style="fill:#d93e58; stroke:none;" d="M85 150L86 151L85 150z"/>
<path style="fill:#df6d7e; stroke:none;" d="M139 150L140 151L139 150z"/>
<path style="fill:#eaa3ad; stroke:none;" d="M158 150L159 151L158 150z"/>
<path style="fill:#d93e58; stroke:none;" d="M65 151L66 152L65 151z"/>
<path style="fill:#eaa3ad; stroke:none;" d="M65 152L66 153L65 152z"/>
<path style="fill:#df6d7e; stroke:none;" d="M84 152L85 153L84 152z"/>
<path style="fill:#eaa3ad; stroke:none;" d="M140 152L141 153L140 152M159 152L160 153L159 152z"/>
<path style="fill:#d93e58; stroke:none;" d="M140 153L141 154L140 153z"/>
<path style="fill:#eaa3ad; stroke:none;" d="M64 154L65 155L64 154M83 154L84 155L83 154z"/>
<path style="fill:#df6d7e; stroke:none;" d="M160 154L161 155L160 154z"/>
<path style="fill:#d93e58; stroke:none;" d="M83 155L84 156L83 155z"/>
<path style="fill:#df6d7e; stroke:none;" d="M141 155L142 156L141 155z"/>
<path style="fill:#d93e58; stroke:none;" d="M40 156L41 157L40 156z"/>
<path style="fill:#df6d7e; stroke:none;" d="M63 156L64 157L63 156z"/>
<path style="fill:#d93e58; stroke:none;" d="M161 156L162 157L161 156M184 156L185 157L184 156z"/>
<path style="fill:#df6d7e; stroke:none;" d="M40.3333 157.667L40.6667 158.333L40.3333 157.667M82 157L83 158L82 157z"/>
<path style="fill:#eaa3ad; stroke:none;" d="M142 157L143 158L142 157M161 157L162 158L161 157z"/>
<path style="fill:#df6d7e; stroke:none;" d="M184.333 157.667L184.667 158.333L184.333 157.667M62 158L63 159L62 158z"/>
<path style="fill:#d93e58; stroke:none;" d="M142 158L143 159L142 158z"/>
<path style="fill:#eaa3ad; stroke:none;" d="M40.3333 159.667L40.6667 160.333L40.3333 159.667M62 159L63 160L62 159M81 159L82 160L81 159M162 159L163 160L162 159M184.333 159.667L184.667 160.333L184.333 159.667z"/>
<path style="fill:#d93e58; stroke:none;" d="M61 160L62 161L61 160M81 160L82 161L81 160z"/>
<path style="fill:#df6d7e; stroke:none;" d="M143 160L144 161L143 160z"/>
<path style="fill:#eaa3ad; stroke:none;" d="M61 161L62 162L61 161M163 161L164 162L163 161z"/>
<path style="fill:#df6d7e; stroke:none;" d="M80 162L81 163L80 162z"/>
<path style="fill:#eaa3ad; stroke:none;" d="M144 162L145 163L144 162M60 163L61 164L60 163z"/>
<path style="fill:#d93e58; stroke:none;" d="M144 163L145 164L144 163z"/>
<path style="fill:#df6d7e; stroke:none;" d="M164 163L145 164L145 165L165 164L164 163M60 164L60 165L79 165L60 164z"/>
<path style="fill:#d93e58; stroke:none;" d="M79 164L80 165L79 164M164 164L165 165L164 164M41 165L42 166L41 165M183 165L184 166L183 165z"/>
<path style="fill:#df6d7e; stroke:none;" d="M41 166L42 167L41 166M183 166L184 167L183 166z"/>
<path style="fill:#eaa3ad; stroke:none;" d="M41 167L42 168L41 167M183 167L184 168L183 167M42 168L43 169L42 168z"/>
<path style="fill:#d93e58; stroke:none;" d="M43 168L44 169L43 168M181 168L182 169L181 168z"/>
<path style="fill:#eaa3ad; stroke:none;" d="M182 168L183 169L182 168M44 169L45 170L44 169M180 169L181 170L180 169M46 170L47 171L46 170M178 170L179 171L178 170z"/>
<path style="fill:#df6d7e; stroke:none;" d="M48 171L49 172L48 171M176 171L177 172L176 171M50 172L51 173L50 172M174 172L175 173L174 172z"/>
<path style="fill:#d93e58; stroke:none;" d="M52 173L53 174L52 173M172 173L173 174L172 173z"/>
<path style="fill:#eaa3ad; stroke:none;" d="M173 173L174 174L173 173M53 174L54 175L53 174M171 174L172 175L171 174M55 175L56 176L55 175M169 175L170 176L169 175M57 176L58 177L57 176z"/>
<path style="fill:#df6d7e; stroke:none;" d="M167 176L168 177L167 176M59 177L60 178L59 177M165 177L166 178L165 177z"/>
<path style="fill:#d93e58; stroke:none;" d="M61 178L62 179L61 178M163 178L164 179L163 178z"/>
<path style="fill:#eaa3ad; stroke:none;" d="M164 178L165 179L164 178M62 179L63 180L62 179M162 179L163 180L162 179M64 180L65 181L64 180M160 180L161 181L160 180M66 181L67 182L66 181M158 181L159 182L158 181z"/>
<path style="fill:#df6d7e; stroke:none;" d="M68 182L69 183L68 182M156 182L157 183L156 182z"/>
<path style="fill:#d93e58; stroke:none;" d="M70 183L71 184L70 183M154 183L155 184L154 183z"/>
<path style="fill:#eaa3ad; stroke:none;" d="M155 183L156 184L155 183M71 184L72 185L71 184z"/>
<path style="fill:#d93e58; stroke:none;" d="M72 184L73 185L72 184z"/>
<path style="fill:#eaa3ad; stroke:none;" d="M153 184L154 185L153 184M73 185L74 186L73 185M151 185L152 186L151 185M75 186L76 187L75 186M149 186L150 187L149 186z"/>
<path style="fill:#df6d7e; stroke:none;" d="M77 187L78 188L77 187M147 187L148 188L147 187z"/>
<path style="fill:#d93e58; stroke:none;" d="M79 188L80 189L79 188M145 188L146 189L145 188z"/>
<path style="fill:#eaa3ad; stroke:none;" d="M80 189L81 190L80 189z"/>
<path style="fill:#d93e58; stroke:none;" d="M81 189L82 190L81 189z"/>
<path style="fill:#eaa3ad; stroke:none;" d="M144 189L145 190L144 189M82 190L83 191L82 190M142 190L143 191L142 190M84 191L85 192L84 191M140 191L141 192L140 191z"/>
<path style="fill:#df6d7e; stroke:none;" d="M86 192L87 193L86 192M138 192L139 193L138 192M88 193L89 194L88 193M136 193L137 194L136 193z"/>
<path style="fill:#eaa3ad; stroke:none;" d="M89 194L90 195L89 194z"/>
<path style="fill:#d93e58; stroke:none;" d="M90 194L91 195L90 194M134 194L135 195L134 194z"/>
<path style="fill:#eaa3ad; stroke:none;" d="M135 194L136 195L135 194M91 195L92 196L91 195M133 195L134 196L133 195M93 196L94 197L93 196M131 196L132 197L131 196z"/>
<path style="fill:#df6d7e; stroke:none;" d="M95 197L96 198L95 197M129 197L130 198L129 197M97 198L98 199L97 198M127 198L128 199L127 198z"/>
<path style="fill:#eaa3ad; stroke:none;" d="M98 199L99 200L98 199z"/>
<path style="fill:#d93e58; stroke:none;" d="M99 199L100 200L99 199M125 199L126 200L125 199z"/>
<path style="fill:#eaa3ad; stroke:none;" d="M126 199L127 200L126 199M100 200L101 201L100 200M124 200L125 201L124 200M102 201L103 202L102 201M122 201L123 202L122 201z"/>
<path style="fill:#df6d7e; stroke:none;" d="M104 202L105 203L104 202M120 202L121 203L120 202M106 203L107 204L106 203M118 203L119 204L118 203z"/>
<path style="fill:#d93e58; stroke:none;" d="M108 204L109 205L108 204M116 204L117 205L116 204z"/>
<path style="fill:#eaa3ad; stroke:none;" d="M117 204L118 205L117 204M109 205L110 206L109 205z"/>
<path style="fill:#d93e58; stroke:none;" d="M110 205L111 206L110 205z"/>
<path style="fill:#eaa3ad; stroke:none;" d="M115 205L116 206L115 205M111 206L112 207L111 206M113 206L114 207L113 206z"/>
</svg>
