<?xml version="1.0" standalone="yes"?>
<svg xmlns="http://www.w3.org/2000/svg" width="290" height="174">
<path style="fill:#020202; stroke:none;" d="M0 0L0 174L290 174L290 0L0 0z"/>
<path style="fill:#906422; stroke:none;" d="M41.6667 1.33333L42.3333 1.66667L41.6667 1.33333z"/>
<path style="fill:#9c9c9c; stroke:none;" d="M43 1L43 2L56 2L43 1z"/>
<path style="fill:#906422; stroke:none;" d="M56.6667 1.33333L57.3333 1.66667L56.6667 1.33333M238 1L239 2L238 1z"/>
<path style="fill:#9c9c9c; stroke:none;" d="M239 1L239 2L242 2L239 1z"/>
<path style="fill:#fdfdfd; stroke:none;" d="M215 72C211.664 83.2876 218.943 87.1771 229 89.1921C242.628 91.9226 259.483 91.7599 269.815 80.9066C272.688 77.8888 274.931 74.1352 275.671 70C279.119 50.7314 264.638 43.8392 249 38.9745C242.612 36.9872 230.554 33.4386 230.453 25C230.294 11.6282 251.829 13.0344 260 15.439C263.098 16.3509 269.42 20.2355 271.393 15.8117C275.333 6.97731 262.944 3.50597 257 2.42438C243.618 -0.0108337 226.221 1.14532 218.144 14.0039C216.258 17.0071 215.333 20.4829 215.091 24C213.134 52.4206 244.327 44.8979 257.721 59.213C271.666 74.1157 242.18 79.0365 233 77.3843C226.764 76.2619 221.125 73.4514 215 72z"/>
<path style="fill:#9c9c9c; stroke:none;" d="M251 1L251 2L254 2L251 1z"/>
<path style="fill:#906422; stroke:none;" d="M254 1L255 2L254 1z"/>
<path style="fill:#9c9c9c; stroke:none;" d="M36.6667 2.33333L37.3333 2.66667L36.6667 2.33333z"/>
<path style="fill:#fdfdfd; stroke:none;" d="M67 41C56.0385 39.5844 46.0619 37.0223 35 39.5139C15.912 43.8134 5.29244 69.3282 21.0432 83.8117C35.3503 96.9678 56.224 88.6773 68 77C70.3766 84.4582 82.2452 94.9594 86.2917 81.8156C87.7355 77.1258 82.4622 70.0469 82.0903 65C80.9304 49.2595 86.447 28.2404 78.0448 14.0147C69.7035 -0.107803 48.1075 -0.134613 34 3.375C27.6022 4.96661 16.7938 7.89389 19.3218 16.8511C20.9693 22.6885 39.2096 14.6418 44 14.1705C62.1995 12.3801 67 25.5786 67 41z"/>
<path style="fill:#9c9c9c; stroke:none;" d="M60.6667 2.33333L61.3333 2.66667L60.6667 2.33333z"/>
<path style="fill:#906422; stroke:none;" d="M62 2L63 3L62 2z"/>
<path style="fill:#9c9c9c; stroke:none;" d="M234.667 2.33333L235.333 2.66667L234.667 2.33333M257.667 2.33333L258.333 2.66667L257.667 2.33333z"/>
<path style="fill:#906422; stroke:none;" d="M259 2L260 3L259 2z"/>
<path style="fill:#9c9c9c; stroke:none;" d="M32.6667 3.33333L33.3333 3.66667L32.6667 3.33333M64 3L65 4L64 3z"/>
<path style="fill:#906422; stroke:none;" d="M65 3L66 4L65 3M92 3L91 5L92 3z"/>
<path style="fill:#9c9c9c; stroke:none;" d="M93 3L93 4L104 4L93 3z"/>
<path style="fill:#906422; stroke:none;" d="M104 3L105 4L104 3M143 3L144 4L143 3z"/>
<path style="fill:#9c9c9c; stroke:none;" d="M144 3L144 4L154 4L144 3z"/>
<path style="fill:#906422; stroke:none;" d="M154 3L155 4L154 3M193.667 3.33333L194.333 3.66667L193.667 3.33333z"/>
<path style="fill:#9c9c9c; stroke:none;" d="M195 3L195 4L205 4L195 3z"/>
<path style="fill:#906422; stroke:none;" d="M205 3L206 4L205 3z"/>
<path style="fill:#9c9c9c; stroke:none;" d="M231 3L232 4L231 3M262 3L263 4L262 3z"/>
<path style="fill:#906422; stroke:none;" d="M28 4L29 5L28 4z"/>
<path style="fill:#9c9c9c; stroke:none;" d="M29 4L30 5L29 4M67 4L68 5L67 4z"/>
<path style="fill:#fdfdfd; stroke:none;" d="M92 4C92.3964 22.608 102.721 43.1536 107.859 61C109.937 68.2198 111.451 79.702 116.086 85.6821C118.611 88.9397 126.249 88.7082 129.891 87.6821C135.227 86.1788 135.804 76.5609 136.79 72C140.34 55.5775 146.666 38.7662 148 22L149 22C153.023 37.5444 156.817 53.3053 160.21 69C161.224 73.6928 161.967 84.1715 166.303 86.9722C170.097 89.4224 180.041 88.976 182.431 84.8519C186.544 77.7555 187.749 67.7895 190.333 60C196.28 42.0762 203.173 23.4939 207 5C203.186 3.87276 195.009 2.38028 191.843 5.60339C187.992 9.52505 187.419 18.8379 186.127 24C182.167 39.8176 176.373 55.8727 174 72L173 72C171.098 57.8743 166.514 43.9129 163.424 30C161.863 22.972 161.124 13.4555 157.57 7.14815C155.274 3.07323 145.99 2.68887 142.279 5.02779C137.95 7.75516 137.509 17.4033 136.374 22C132.367 38.2383 128.381 54.6214 125 71L112.627 24L106.57 5.60339L92 4z"/>
<path style="fill:#9c9c9c; stroke:none;" d="M106 4L107 5L106 4M141 4L142 5L141 4M156 4L157 5L156 4M206 4L207 5L206 4M229 4L230 5L229 4M265 4L266 5L265 4M26 5L27 6L26 5M69 5L70 6L69 5M91.3333 5.66667L91.6667 6.33333L91.3333 5.66667M107 5L108 6L107 5M140 5L141 6L140 5M157 5L158 6L157 5M227 5L228 6L227 5M267 5L268 6L267 5z"/>
<path style="fill:#906422; stroke:none;" d="M23 6L24 7L23 6z"/>
<path style="fill:#9c9c9c; stroke:none;" d="M24 6L25 7L24 6z"/>
<path style="fill:#906422; stroke:none;" d="M71 6L72 7L71 6M190 6L191 7L190 6M225 6L226 7L225 6M269 6L270 7L269 6M21 7L22 8L21 7z"/>
<path style="fill:#9c9c9c; stroke:none;" d="M22 7L23 8L22 7M72 7L73 8L72 7z"/>
<path style="fill:#906422; stroke:none;" d="M91 7L92 8L91 7z"/>
<path style="fill:#9c9c9c; stroke:none;" d="M108 7L109 8L108 7z"/>
<path style="fill:#906422; stroke:none;" d="M139 7L140 8L139 7M158 7L159 8L158 7z"/>
<path style="fill:#9c9c9c; stroke:none;" d="M190 7L191 8L190 7M206.333 7.66667L206.667 8.33333L206.333 7.66667M224 7L225 8L224 7M270 7L271 8L270 7M20 8L21 9L20 8M73 8L74 9L73 8M139 8L140 9L139 8M158.333 8.66667L158.667 9.33333L158.333 8.66667z"/>
<path style="fill:#906422; stroke:none;" d="M271 8L272 9L271 8M19 9L20 10L19 9M189 9L190 10L189 9M206 9L207 10L206 9M221 9L222 10L221 9z"/>
<path style="fill:#9c9c9c; stroke:none;" d="M271 9L272 10L271 9M19 10L20 11L19 10M75 10L76 11L75 10M92 10L93 11L92 10z"/>
<path style="fill:#906422; stroke:none;" d="M109 10L110 11L109 10z"/>
<path style="fill:#9c9c9c; stroke:none;" d="M189 10L190 11L189 10z"/>
<path style="fill:#906422; stroke:none;" d="M220 10L221 11L220 10z"/>
<path style="fill:#9c9c9c; stroke:none;" d="M76 11L77 12L76 11z"/>
<path style="fill:#906422; stroke:none;" d="M92 11L93 12L92 11z"/>
<path style="fill:#9c9c9c; stroke:none;" d="M109 11L110 12L109 11z"/>
<path style="fill:#906422; stroke:none;" d="M138 11L139 12L138 11z"/>
<path style="fill:#9c9c9c; stroke:none;" d="M205 11L206 12L205 11z"/>
<path style="fill:#906422; stroke:none;" d="M77 12L78 13L77 12z"/>
<path style="fill:#9c9c9c; stroke:none;" d="M138.333 12.6667L138.667 13.3333L138.333 12.6667M159.333 12.6667L159.667 13.3333L159.333 12.6667z"/>
<path style="fill:#906422; stroke:none;" d="M205 12L206 13L205 12z"/>
<path style="fill:#9c9c9c; stroke:none;" d="M93 13L94 14L93 13z"/>
<path style="fill:#906422; stroke:none;" d="M188 13L189 14L188 13z"/>
<path style="fill:#9c9c9c; stroke:none;" d="M218 13L219 14L218 13M41 14L41 15L44 15L41 14z"/>
<path style="fill:#906422; stroke:none;" d="M44 14L44 15L49 15L44 14z"/>
<path style="fill:#9c9c9c; stroke:none;" d="M49 14L49 15L53 15L49 14M78 14L79 15L78 14z"/>
<path style="fill:#906422; stroke:none;" d="M93 14L94 15L93 14M110 14L111 15L110 14z"/>
<path style="fill:#9c9c9c; stroke:none;" d="M188 14L189 15L188 14M204 14L205 15L204 14M240.667 14.3333L241.333 14.6667L240.667 14.3333z"/>
<path style="fill:#906422; stroke:none;" d="M242 14L243 15L242 14M253 14L254 15L253 14z"/>
<path style="fill:#9c9c9c; stroke:none;" d="M254 14L254 15L257 15L254 14M36 15L37 16L36 15z"/>
<path style="fill:#906422; stroke:none;" d="M37 15L38 16L37 15M55 15L56 16L55 15z"/>
<path style="fill:#9c9c9c; stroke:none;" d="M56 15L57 16L56 15M110 15L111 16L110 15z"/>
<path style="fill:#906422; stroke:none;" d="M137.333 15.6667L137.667 16.3333L137.333 15.6667M204 15L205 16L204 15z"/>
<path style="fill:#9c9c9c; stroke:none;" d="M237 15L238 16L237 15z"/>
<path style="fill:#906422; stroke:none;" d="M259 15L260 16L259 15z"/>
<path style="fill:#9c9c9c; stroke:none;" d="M260 15L261 16L260 15M32 16L33 17L32 16z"/>
<path style="fill:#906422; stroke:none;" d="M33 16L34 17L33 16M58 16L59 17L58 16M79 16L80 17L79 16z"/>
<path style="fill:#9c9c9c; stroke:none;" d="M94 16L95 17L94 16M160.333 16.6667L160.667 17.3333L160.333 16.6667z"/>
<path style="fill:#906422; stroke:none;" d="M216 16L217 17L216 16M235 16L236 17L235 16M262 16L263 17L262 16z"/>
<path style="fill:#9c9c9c; stroke:none;" d="M263 16L264 17L263 16M29 17L30 18L29 17z"/>
<path style="fill:#906422; stroke:none;" d="M30 17L31 18L30 17z"/>
<path style="fill:#9c9c9c; stroke:none;" d="M60 17L61 18L60 17z"/>
<path style="fill:#906422; stroke:none;" d="M94 17L95 18L94 17z"/>
<path style="fill:#9c9c9c; stroke:none;" d="M137 17L138 18L137 17z"/>
<path style="fill:#906422; stroke:none;" d="M187 17L188 18L187 17z"/>
<path style="fill:#9c9c9c; stroke:none;" d="M203 17L204 18L203 17M233 17L234 18L233 17M265 17L266 18L265 17M271 17L272 18L271 17M26 18L27 19L26 18z"/>
<path style="fill:#906422; stroke:none;" d="M27 18L28 19L27 18M61 18L62 19L61 18M80 18L81 19L80 18M111 18L112 19L111 18z"/>
<path style="fill:#9c9c9c; stroke:none;" d="M187 18L188 19L187 18z"/>
<path style="fill:#906422; stroke:none;" d="M203 18L204 19L203 18M267 18L268 19L267 18z"/>
<path style="fill:#9c9c9c; stroke:none;" d="M268 18L269 19L268 18M270 18L271 19L270 18M19 19L20 20L19 19M24 19L25 20L24 19z"/>
<path style="fill:#906422; stroke:none;" d="M62 19L63 20L62 19z"/>
<path style="fill:#9c9c9c; stroke:none;" d="M80 19L81 20L80 19M111 19L112 20L111 19M215.333 19.6667L215.667 20.3333L215.333 19.6667z"/>
<path style="fill:#906422; stroke:none;" d="M20.6667 20.3333L21.3333 20.6667L20.6667 20.3333z"/>
<path style="fill:#9c9c9c; stroke:none;" d="M63 20L64 21L63 20M95 20L96 21L95 20z"/>
<path style="fill:#906422; stroke:none;" d="M136 20L137 21L136 20M161 20L162 21L161 20z"/>
<path style="fill:#9c9c9c; stroke:none;" d="M202.333 20.6667L202.667 21.3333L202.333 20.6667M231 20L232 21L231 20z"/>
<path style="fill:#906422; stroke:none;" d="M95 21L96 22L95 21z"/>
<path style="fill:#9c9c9c; stroke:none;" d="M136 21L137 22L136 21M161 21L162 22L161 21M186.333 21.6667L186.667 22.3333L186.333 21.6667z"/>
<path style="fill:#906422; stroke:none;" d="M64 22L65 23L64 22M81 22L82 23L81 22M112 22L113 23L112 22z"/>
<path style="fill:#9c9c9c; stroke:none;" d="M148 22L150 25L148 22M230 22L230 28L231 28L230 22M81.3333 23.6667L81.6667 24.3333L81.3333 23.6667M96 23L97 24L96 23M112 23L113 24L112 23z"/>
<path style="fill:#906422; stroke:none;" d="M214 23L214 29L215 29L214 23z"/>
<path style="fill:#9c9c9c; stroke:none;" d="M65 24L66 25L65 24z"/>
<path style="fill:#906422; stroke:none;" d="M96 24L97 25L96 24M135 24L136 25L135 24M148 24L149 25L148 24M162 24L163 25L162 24z"/>
<path style="fill:#9c9c9c; stroke:none;" d="M201 24L202 25L201 24z"/>
<path style="fill:#906422; stroke:none;" d="M65.3333 25.6667L65.6667 26.3333L65.3333 25.6667z"/>
<path style="fill:#9c9c9c; stroke:none;" d="M135 25L136 26L135 25z"/>
<path style="fill:#906422; stroke:none;" d="M149 25L150 26L149 25z"/>
<path style="fill:#9c9c9c; stroke:none;" d="M162 25L163 26L162 25M185.333 25.6667L185.667 26.3333L185.333 25.6667M97.3333 26.6667L97.6667 27.3333L97.3333 26.6667z"/>
<path style="fill:#906422; stroke:none;" d="M113 26L114 27L113 26z"/>
<path style="fill:#9c9c9c; stroke:none;" d="M147.333 26.6667L147.667 27.3333L147.333 26.6667M113 27L114 28L113 27M200 27L201 28L200 27z"/>
<path style="fill:#906422; stroke:none;" d="M134 28L135 29L134 28M147 28L148 29L147 28z"/>
<path style="fill:#9c9c9c; stroke:none;" d="M150 28L151 29L150 28z"/>
<path style="fill:#906422; stroke:none;" d="M163 28L164 29L163 28M184 28L185 29L184 28M200 28L201 29L200 28z"/>
<path style="fill:#9c9c9c; stroke:none;" d="M66 29L66 41L67 41L66 29z"/>
<path style="fill:#906422; stroke:none;" d="M82 29L82 64L83 64L82 29z"/>
<path style="fill:#9c9c9c; stroke:none;" d="M134.333 29.6667L134.667 30.3333L134.333 29.6667z"/>
<path style="fill:#906422; stroke:none;" d="M150.333 29.6667L150.667 30.3333L150.333 29.6667z"/>
<path style="fill:#9c9c9c; stroke:none;" d="M163.333 29.6667L163.667 30.3333L163.333 29.6667M184.333 29.6667L184.667 30.3333L184.333 29.6667M231 29L232 30L231 29M98 30L99 31L98 30z"/>
<path style="fill:#906422; stroke:none;" d="M114 30L115 31L114 30z"/>
<path style="fill:#9c9c9c; stroke:none;" d="M199 30L200 31L199 30M114 31L115 32L114 31M146 31L147 32L146 31z"/>
<path style="fill:#906422; stroke:none;" d="M199 31L200 32L199 31z"/>
<path style="fill:#9c9c9c; stroke:none;" d="M215.333 31.6667L215.667 32.3333L215.333 31.6667z"/>
<path style="fill:#906422; stroke:none;" d="M146 32L147 33L146 32z"/>
<path style="fill:#9c9c9c; stroke:none;" d="M151.333 32.6667L151.667 33.3333L151.333 32.6667z"/>
<path style="fill:#906422; stroke:none;" d="M164 32L165 33L164 32M183 32L184 33L183 32z"/>
<path style="fill:#9c9c9c; stroke:none;" d="M99 33L100 34L99 33z"/>
<path style="fill:#906422; stroke:none;" d="M133 33L134 34L133 33z"/>
<path style="fill:#9c9c9c; stroke:none;" d="M164.333 33.6667L164.667 34.3333L164.333 33.6667M183 33L184 34L183 33M198 33L199 34L198 33M235 33L236 34L235 33z"/>
<path style="fill:#906422; stroke:none;" d="M99 34L100 35L99 34M115 34L116 35L115 34z"/>
<path style="fill:#9c9c9c; stroke:none;" d="M133 34L134 35L133 34z"/>
<path style="fill:#906422; stroke:none;" d="M151 34L152 35L151 34M198 34L199 35L198 34z"/>
<path style="fill:#9c9c9c; stroke:none;" d="M216 34L217 35L216 34z"/>
<path style="fill:#906422; stroke:none;" d="M237 34L238 35L237 34z"/>
<path style="fill:#9c9c9c; stroke:none;" d="M115 35L116 36L115 35M145 35L146 36L145 35z"/>
<path style="fill:#906422; stroke:none;" d="M216 35L217 36L216 35z"/>
<path style="fill:#9c9c9c; stroke:none;" d="M239 35L240 36L239 35M100 36L101 37L100 36z"/>
<path style="fill:#906422; stroke:none;" d="M145 36L146 37L145 36z"/>
<path style="fill:#9c9c9c; stroke:none;" d="M152.333 36.6667L152.667 37.3333L152.333 36.6667z"/>
<path style="fill:#906422; stroke:none;" d="M182 36L183 37L182 36z"/>
<path style="fill:#9c9c9c; stroke:none;" d="M241 36L242 37L241 36z"/>
<path style="fill:#906422; stroke:none;" d="M242 36L243 37L242 36M100 37L101 38L100 37M132 37L133 38L132 37M165 37L166 38L165 37z"/>
<path style="fill:#9c9c9c; stroke:none;" d="M182 37L183 38L182 37M197 37L198 38L197 37z"/>
<path style="fill:#906422; stroke:none;" d="M217 37L218 38L217 37z"/>
<path style="fill:#9c9c9c; stroke:none;" d="M244 37L245 38L244 37z"/>
<path style="fill:#906422; stroke:none;" d="M245 37L246 38L245 37M37.6667 38.3333L38.3333 38.6667L37.6667 38.3333z"/>
<path style="fill:#9c9c9c; stroke:none;" d="M39 38L39 39L42 39L39 38M50 38L50 39L53 39L50 38z"/>
<path style="fill:#906422; stroke:none;" d="M53.6667 38.3333L54.3333 38.6667L53.6667 38.3333M116 38L117 39L116 38z"/>
<path style="fill:#9c9c9c; stroke:none;" d="M132 38L133 39L132 38z"/>
<path style="fill:#906422; stroke:none;" d="M152 38L153 39L152 38z"/>
<path style="fill:#9c9c9c; stroke:none;" d="M165 38L166 39L165 38z"/>
<path style="fill:#906422; stroke:none;" d="M197 38L198 39L197 38z"/>
<path style="fill:#9c9c9c; stroke:none;" d="M218 38L219 39L218 38M247 38L248 39L247 38z"/>
<path style="fill:#906422; stroke:none;" d="M248 38L249 39L248 38M33 39L34 40L33 39z"/>
<path style="fill:#9c9c9c; stroke:none;" d="M34 39L35 40L34 39M58.6667 39.3333L59.3333 39.6667L58.6667 39.3333z"/>
<path style="fill:#906422; stroke:none;" d="M60 39L61 40L60 39z"/>
<path style="fill:#9c9c9c; stroke:none;" d="M101.333 39.6667L101.667 40.3333L101.333 39.6667M116 39L117 40L116 39M144.333 39.6667L144.667 40.3333L144.333 39.6667M250 39L251 40L250 39z"/>
<path style="fill:#906422; stroke:none;" d="M251 39L252 40L251 39M30 40L31 41L30 40z"/>
<path style="fill:#9c9c9c; stroke:none;" d="M31 40L32 41L31 40M63.6667 40.3333L64.3333 40.6667L63.6667 40.3333z"/>
<path style="fill:#906422; stroke:none;" d="M65 40L66 41L65 40M181 40L182 41L181 40z"/>
<path style="fill:#9c9c9c; stroke:none;" d="M196 40L197 41L196 40z"/>
<path style="fill:#906422; stroke:none;" d="M219 40L220 41L219 40z"/>
<path style="fill:#9c9c9c; stroke:none;" d="M254 40L255 41L254 40M28 41L29 42L28 41z"/>
<path style="fill:#906422; stroke:none;" d="M131 41L132 42L131 41z"/>
<path style="fill:#9c9c9c; stroke:none;" d="M153 41L154 42L153 41z"/>
<path style="fill:#906422; stroke:none;" d="M166 41L167 42L166 41z"/>
<path style="fill:#9c9c9c; stroke:none;" d="M181 41L182 42L181 41z"/>
<path style="fill:#906422; stroke:none;" d="M196 41L197 42L196 41M220 41L221 42L220 41z"/>
<path style="fill:#9c9c9c; stroke:none;" d="M257 41L258 42L257 41M26 42L27 43L26 42z"/>
<path style="fill:#906422; stroke:none;" d="M117 42L118 43L117 42z"/>
<path style="fill:#9c9c9c; stroke:none;" d="M131.333 42.6667L131.667 43.3333L131.333 42.6667z"/>
<path style="fill:#906422; stroke:none;" d="M153 42L154 43L153 42z"/>
<path style="fill:#9c9c9c; stroke:none;" d="M166 42L167 43L166 42z"/>
<path style="fill:#906422; stroke:none;" d="M221 42L222 43L221 42z"/>
<path style="fill:#9c9c9c; stroke:none;" d="M260 42L261 43L260 42z"/>
<path style="fill:#906422; stroke:none;" d="M24 43L25 44L24 43z"/>
<path style="fill:#9c9c9c; stroke:none;" d="M102 43L103 44L102 43M117 43L118 44L117 43M143.333 43.6667L143.667 44.3333L143.333 43.6667M195 43L196 44L195 43z"/>
<path style="fill:#906422; stroke:none;" d="M222 43L223 44L222 43z"/>
<path style="fill:#9c9c9c; stroke:none;" d="M262 43L263 44L262 43M23 44L24 45L23 44z"/>
<path style="fill:#906422; stroke:none;" d="M180 44L181 45L180 44M195 44L196 45L195 44M223 44L224 45L223 44z"/>
<path style="fill:#9c9c9c; stroke:none;" d="M264 44L265 45L264 44M22 45L23 46L22 45M154 45L155 46L154 45z"/>
<path style="fill:#906422; stroke:none;" d="M167 45L168 46L167 45z"/>
<path style="fill:#9c9c9c; stroke:none;" d="M180 45L181 46L180 45M225 45L226 46L225 45z"/>
<path style="fill:#906422; stroke:none;" d="M266 45L267 46L266 45z"/>
<path style="fill:#9c9c9c; stroke:none;" d="M103 46L104 47L103 46z"/>
<path style="fill:#906422; stroke:none;" d="M118 46L119 47L118 46z"/>
<path style="fill:#9c9c9c; stroke:none;" d="M130.333 46.6667L130.667 47.3333L130.333 46.6667z"/>
<path style="fill:#906422; stroke:none;" d="M154 46L155 47L154 46z"/>
<path style="fill:#9c9c9c; stroke:none;" d="M167.333 46.6667L167.667 47.3333L167.333 46.6667M194 46L195 47L194 46M227 46L228 47L227 46M267 46L268 47L267 46z"/>
<path style="fill:#906422; stroke:none;" d="M103 47L104 48L103 47z"/>
<path style="fill:#9c9c9c; stroke:none;" d="M118 47L119 48L118 47M142.333 47.6667L142.667 48.3333L142.333 47.6667z"/>
<path style="fill:#906422; stroke:none;" d="M194 47L195 48L194 47M228 47L229 48L228 47z"/>
<path style="fill:#9c9c9c; stroke:none;" d="M229 47L230 48L229 47z"/>
<path style="fill:#906422; stroke:none;" d="M269 47L270 48L269 47z"/>
<path style="fill:#9c9c9c; stroke:none;" d="M19 48L20 49L19 48z"/>
<path style="fill:#906422; stroke:none;" d="M179 48L180 49L179 48z"/>
<path style="fill:#9c9c9c; stroke:none;" d="M231 48L232 49L231 48z"/>
<path style="fill:#906422; stroke:none;" d="M270 48L271 49L270 48z"/>
<path style="fill:#9c9c9c; stroke:none;" d="M18 49L19 50L18 49M45 49L45 50L55 50L45 49M104 49L105 50L104 49z"/>
<path style="fill:#906422; stroke:none;" d="M142 49L143 50L142 49z"/>
<path style="fill:#9c9c9c; stroke:none;" d="M155 49L156 50L155 49z"/>
<path style="fill:#906422; stroke:none;" d="M168.333 49.6667L168.667 50.3333L168.333 49.6667z"/>
<path style="fill:#9c9c9c; stroke:none;" d="M179 49L180 50L179 49M193.333 49.6667L193.667 50.3333L193.333 49.6667z"/>
<path style="fill:#906422; stroke:none;" d="M233 49L234 50L233 49z"/>
<path style="fill:#9c9c9c; stroke:none;" d="M234 49L235 50L234 49z"/>
<path style="fill:#906422; stroke:none;" d="M271 49L272 50L271 49M17 50L18 51L17 50z"/>
<path style="fill:#9c9c9c; stroke:none;" d="M40 50L41 51L40 50z"/>
<path style="fill:#906422; stroke:none;" d="M41 50L42 51L41 50z"/>
<path style="fill:#020202; stroke:none;" d="M42 50.5293C31.9416 52.8546 25.4384 66.6493 34.2284 74.5702C38.7623 78.6558 45.5376 78.1112 51 76.76C59.0952 74.7576 72.4061 62.1034 64.9722 52.7384C61.3344 48.1557 47.0182 49.3692 42 50.5293z"/>
<path style="fill:#906422; stroke:none;" d="M59 50L60 51L59 50z"/>
<path style="fill:#9c9c9c; stroke:none;" d="M60.6667 50.3333L61.3333 50.6667L60.6667 50.3333z"/>
<path style="fill:#906422; stroke:none;" d="M104 50L105 51L104 50z"/>
<path style="fill:#9c9c9c; stroke:none;" d="M119.333 50.6667L119.667 51.3333L119.333 50.6667z"/>
<path style="fill:#906422; stroke:none;" d="M129 50L130 51L129 50M155 50L156 51L155 50M236 50L237 51L236 50z"/>
<path style="fill:#9c9c9c; stroke:none;" d="M237 50L238 51L237 50M37 51L38 52L37 51z"/>
<path style="fill:#906422; stroke:none;" d="M38 51L39 52L38 51M64 51L65 52L64 51z"/>
<path style="fill:#9c9c9c; stroke:none;" d="M65.6667 51.3333L66.3333 51.6667L65.6667 51.3333M129 51L130 52L129 51M168 51L169 52L168 51z"/>
<path style="fill:#906422; stroke:none;" d="M239 51L240 52L239 51z"/>
<path style="fill:#9c9c9c; stroke:none;" d="M240 51L241 52L240 51M272 51L273 52L272 51M16 52L17 53L16 52z"/>
<path style="fill:#906422; stroke:none;" d="M36 52L37 53L36 52M66 52L66 59L67 59L66 52z"/>
<path style="fill:#9c9c9c; stroke:none;" d="M141 52L142 53L141 52z"/>
<path style="fill:#906422; stroke:none;" d="M178 52L179 53L178 52M242 52L243 53L242 52z"/>
<path style="fill:#9c9c9c; stroke:none;" d="M243 52L244 53L243 52M273 52L274 53L273 52M34 53L35 54L34 53M105 53L106 54L105 53z"/>
<path style="fill:#906422; stroke:none;" d="M141 53L142 54L141 53z"/>
<path style="fill:#9c9c9c; stroke:none;" d="M156.333 53.6667L156.667 54.3333L156.333 53.6667M178 53L179 54L178 53M192 53L193 54L192 53M246.667 53.3333L247.333 53.6667L246.667 53.3333M15 54L16 55L15 54M33 54L34 55L33 54z"/>
<path style="fill:#906422; stroke:none;" d="M105 54L106 55L105 54z"/>
<path style="fill:#9c9c9c; stroke:none;" d="M120.333 54.6667L120.667 55.3333L120.333 54.6667z"/>
<path style="fill:#906422; stroke:none;" d="M128 54L129 55L128 54M169 54L170 55L169 54M192 54L193 55L192 54M249 54L250 55L249 54z"/>
<path style="fill:#9c9c9c; stroke:none;" d="M250 54L251 55L250 54M274 54L275 55L274 54M128 55L129 56L128 55M169 55L170 56L169 55M252 55L253 56L252 55z"/>
<path style="fill:#906422; stroke:none;" d="M14 56L15 57L14 56z"/>
<path style="fill:#9c9c9c; stroke:none;" d="M106 56L107 57L106 56M140 56L141 57L140 56M177.333 56.6667L177.667 57.3333L177.333 56.6667M191 56L192 57L191 56M254 56L255 57L254 56z"/>
<path style="fill:#906422; stroke:none;" d="M275 56L276 57L275 56z"/>
<path style="fill:#9c9c9c; stroke:none;" d="M14 57L15 58L14 57M31 57L32 58L31 57z"/>
<path style="fill:#906422; stroke:none;" d="M106 57L107 58L106 57M121 57L122 58L121 57M140 57L141 58L140 57z"/>
<path style="fill:#9c9c9c; stroke:none;" d="M157.333 57.6667L157.667 58.3333L157.333 57.6667z"/>
<path style="fill:#906422; stroke:none;" d="M191 57L192 58L191 57z"/>
<path style="fill:#9c9c9c; stroke:none;" d="M256 57L257 58L256 57M275 57L276 58L275 57M121.333 58.6667L121.667 59.3333L121.333 58.6667z"/>
<path style="fill:#906422; stroke:none;" d="M127 58L128 59L127 58M170 58L171 59L170 58z"/>
<path style="fill:#9c9c9c; stroke:none;" d="M257 58L258 59L257 58M66 59L66 62L67 62L66 59M107 59L108 60L107 59M127.333 59.6667L127.667 60.3333L127.333 59.6667M170.333 59.6667L170.667 60.3333L170.333 59.6667M190 59L191 60L190 59M258 59L259 60L258 59M30 60L31 61L30 60z"/>
<path style="fill:#906422; stroke:none;" d="M107 60L108 61L107 60z"/>
<path style="fill:#9c9c9c; stroke:none;" d="M139 60L140 61L139 60M176.333 60.6667L176.667 61.3333L176.333 60.6667z"/>
<path style="fill:#906422; stroke:none;" d="M190 60L191 61L190 60z"/>
<path style="fill:#9c9c9c; stroke:none;" d="M259 60L260 61L259 60z"/>
<path style="fill:#906422; stroke:none;" d="M276 60L277 61L276 60M13 61L14 62L13 61M30.3333 61.6667L30.6667 62.3333L30.3333 61.6667M122.333 61.6667L122.667 62.3333L122.333 61.6667M139.333 61.6667L139.667 62.3333L139.333 61.6667z"/>
<path style="fill:#9c9c9c; stroke:none;" d="M158.333 61.6667L158.667 62.3333L158.333 61.6667M276 61L276 67L277 67L276 61M13 62L13 69L14 69L13 62z"/>
<path style="fill:#906422; stroke:none;" d="M126 62L127 63L126 62M171 62L172 63L171 62z"/>
<path style="fill:#9c9c9c; stroke:none;" d="M189 62L190 63L189 62M108 63L109 64L108 63M122 63L123 64L122 63M126.333 63.6667L126.667 64.3333L126.333 63.6667z"/>
<path style="fill:#906422; stroke:none;" d="M158 63L159 64L158 63z"/>
<path style="fill:#9c9c9c; stroke:none;" d="M171.333 63.6667L171.667 64.3333L171.333 63.6667z"/>
<path style="fill:#906422; stroke:none;" d="M189 63L190 64L189 63z"/>
<path style="fill:#9c9c9c; stroke:none;" d="M260 63L261 64L260 63z"/>
<path style="fill:#906422; stroke:none;" d="M65 64L66 65L65 64z"/>
<path style="fill:#9c9c9c; stroke:none;" d="M82 64L82 69L83 69L82 64z"/>
<path style="fill:#906422; stroke:none;" d="M108 64L109 65L108 64z"/>
<path style="fill:#9c9c9c; stroke:none;" d="M138.333 64.6667L138.667 65.3333L138.333 64.6667M175.333 64.6667L175.667 65.3333L175.333 64.6667z"/>
<path style="fill:#906422; stroke:none;" d="M260 64L260 67L261 67L260 64z"/>
<path style="fill:#9c9c9c; stroke:none;" d="M65 65L66 66L65 65z"/>
<path style="fill:#906422; stroke:none;" d="M123 65L124 66L123 65z"/>
<path style="fill:#9c9c9c; stroke:none;" d="M159.333 65.6667L159.667 66.3333L159.333 65.6667M188.333 65.6667L188.667 66.3333L188.333 65.6667z"/>
<path style="fill:#906422; stroke:none;" d="M30.3333 66.6667L30.6667 67.3333L30.3333 66.6667z"/>
<path style="fill:#9c9c9c; stroke:none;" d="M109 66L110 67L109 66M123.333 66.6667L123.667 67.3333L123.333 66.6667z"/>
<path style="fill:#906422; stroke:none;" d="M125 66L126 67L125 66M138 66L139 67L138 66z"/>
<path style="fill:#9c9c9c; stroke:none;" d="M64 67L65 68L64 67z"/>
<path style="fill:#906422; stroke:none;" d="M109 67L110 68L109 67z"/>
<path style="fill:#9c9c9c; stroke:none;" d="M125.333 67.6667L125.667 68.3333L125.333 67.6667z"/>
<path style="fill:#906422; stroke:none;" d="M159 67L160 68L159 67z"/>
<path style="fill:#9c9c9c; stroke:none;" d="M172.333 67.6667L172.667 68.3333L172.333 67.6667z"/>
<path style="fill:#906422; stroke:none;" d="M174 67L175 68L174 67z"/>
<path style="fill:#9c9c9c; stroke:none;" d="M260.333 67.6667L260.667 68.3333L260.333 67.6667z"/>
<path style="fill:#906422; stroke:none;" d="M276 67L277 68L276 67z"/>
<path style="fill:#9c9c9c; stroke:none;" d="M30 68L31 69L30 68z"/>
<path style="fill:#906422; stroke:none;" d="M63 68L64 69L63 68z"/>
<path style="fill:#9c9c9c; stroke:none;" d="M137.333 68.6667L137.667 69.3333L137.333 68.6667M174 68L175 69L174 68z"/>
<path style="fill:#906422; stroke:none;" d="M13 69L14 70L13 69z"/>
<path style="fill:#9c9c9c; stroke:none;" d="M110 69L111 70L110 69M187 69L188 70L187 69M62 70L63 71L62 70z"/>
<path style="fill:#906422; stroke:none;" d="M110 70L111 71L110 70M124 70L125 71L124 70M137 70L138 71L137 70z"/>
<path style="fill:#9c9c9c; stroke:none;" d="M160 70L161 71L160 70z"/>
<path style="fill:#906422; stroke:none;" d="M259 70L260 71L259 70z"/>
<path style="fill:#9c9c9c; stroke:none;" d="M31 71L32 72L31 71M61 71L62 72L61 71z"/>
<path style="fill:#906422; stroke:none;" d="M83 71L84 72L83 71M160 71L161 72L160 71M173 71L174 72L173 71z"/>
<path style="fill:#9c9c9c; stroke:none;" d="M275 71L276 72L275 71M14.3333 72.6667L14.6667 73.3333L14.3333 72.6667M83 72L84 73L83 72M111.333 72.6667L111.667 73.3333L111.333 72.6667M186 72L187 73L186 72z"/>
<path style="fill:#906422; stroke:none;" d="M214 72L215 73L214 72z"/>
<path style="fill:#9c9c9c; stroke:none;" d="M217 72L218 73L217 72z"/>
<path style="fill:#906422; stroke:none;" d="M218 72L219 73L218 72z"/>
<path style="fill:#9c9c9c; stroke:none;" d="M258 72L259 73L258 72z"/>
<path style="fill:#906422; stroke:none;" d="M58 73L59 74L58 73z"/>
<path style="fill:#9c9c9c; stroke:none;" d="M136 73L137 74L136 73z"/>
<path style="fill:#906422; stroke:none;" d="M186 73L187 74L186 73M220 73L221 74L220 73z"/>
<path style="fill:#9c9c9c; stroke:none;" d="M257 73L258 74L257 73M33 74L34 75L33 74M57 74L58 75L57 74M84 74L85 75L84 74z"/>
<path style="fill:#906422; stroke:none;" d="M136 74L137 75L136 74z"/>
<path style="fill:#9c9c9c; stroke:none;" d="M161 74L162 75L161 74z"/>
<path style="fill:#906422; stroke:none;" d="M213 74L213 81L214 81L213 74z"/>
<path style="fill:#9c9c9c; stroke:none;" d="M222 74L223 75L222 74z"/>
<path style="fill:#906422; stroke:none;" d="M223 74L224 75L223 74z"/>
<path style="fill:#9c9c9c; stroke:none;" d="M256 74L257 75L256 74z"/>
<path style="fill:#906422; stroke:none;" d="M274 74L275 75L274 74z"/>
<path style="fill:#9c9c9c; stroke:none;" d="M34 75L35 76L34 75M55 75L56 76L55 75z"/>
<path style="fill:#906422; stroke:none;" d="M161 75L162 76L161 75z"/>
<path style="fill:#9c9c9c; stroke:none;" d="M185 75L186 76L185 75M225 75L226 76L225 75z"/>
<path style="fill:#906422; stroke:none;" d="M226 75L227 76L226 75z"/>
<path style="fill:#9c9c9c; stroke:none;" d="M254 75L255 76L254 75M15 76L16 77L15 76M36 76L37 77L36 76M52.6667 76.3333L53.3333 76.6667L52.6667 76.3333z"/>
<path style="fill:#906422; stroke:none;" d="M85 76L86 77L85 76z"/>
<path style="fill:#9c9c9c; stroke:none;" d="M112 76L113 77L112 76z"/>
<path style="fill:#906422; stroke:none;" d="M185 76L186 77L185 76z"/>
<path style="fill:#9c9c9c; stroke:none;" d="M228.667 76.3333L229.333 76.6667L228.667 76.3333z"/>
<path style="fill:#906422; stroke:none;" d="M230 76L231 77L230 76M251 76L252 77L251 76z"/>
<path style="fill:#9c9c9c; stroke:none;" d="M252 76L253 77L252 76z"/>
<path style="fill:#906422; stroke:none;" d="M273 76L274 77L273 76z"/>
<path style="fill:#9c9c9c; stroke:none;" d="M38.6667 77.3333L39.3333 77.6667L38.6667 77.3333z"/>
<path style="fill:#906422; stroke:none;" d="M40 77L41 78L40 77M47 77L48 78L47 77z"/>
<path style="fill:#9c9c9c; stroke:none;" d="M48.6667 77.3333L49.3333 77.6667L48.6667 77.3333M67 77L68 78L67 77z"/>
<path style="fill:#906422; stroke:none;" d="M112 77L113 78L112 77z"/>
<path style="fill:#9c9c9c; stroke:none;" d="M135 77L136 78L135 77M233 77L233 78L236 78L233 77z"/>
<path style="fill:#906422; stroke:none;" d="M236.667 77.3333L237.333 77.6667L236.667 77.3333M245.667 77.3333L246.333 77.6667L245.667 77.3333z"/>
<path style="fill:#9c9c9c; stroke:none;" d="M247.667 77.3333L248.333 77.6667L247.667 77.3333M272 77L273 78L272 77M16 78L17 79L16 78M66 78L67 79L66 78z"/>
<path style="fill:#906422; stroke:none;" d="M86 78L87 79L86 78M135 78L136 79L135 78z"/>
<path style="fill:#9c9c9c; stroke:none;" d="M162 78L163 79L162 78M184 78L185 79L184 78M65 79L66 80L65 79z"/>
<path style="fill:#906422; stroke:none;" d="M68 79L69 80L68 79z"/>
<path style="fill:#9c9c9c; stroke:none;" d="M113 79L114 80L113 79z"/>
<path style="fill:#906422; stroke:none;" d="M162 79L163 80L162 79M184 79L185 80L184 79M271 79L272 80L271 79z"/>
<path style="fill:#9c9c9c; stroke:none;" d="M64 80L65 81L64 80z"/>
<path style="fill:#906422; stroke:none;" d="M113 80L114 81L113 80M270 80L271 81L270 80z"/>
<path style="fill:#9c9c9c; stroke:none;" d="M18 81L19 82L18 81M63 81L64 82L63 81z"/>
<path style="fill:#906422; stroke:none;" d="M69 81L70 82L69 81z"/>
<path style="fill:#9c9c9c; stroke:none;" d="M134.333 81.6667L134.667 82.3333L134.333 81.6667M269 81L270 82L269 81M19 82L20 83L19 82M62 82L63 83L62 82M70 82L71 83L70 82M114.333 82.6667L114.667 83.3333L114.333 82.6667M163.333 82.6667L163.667 83.3333L163.333 82.6667M183 82L184 83L183 82M268 82L269 83L268 82M20 83L21 84L20 83z"/>
<path style="fill:#906422; stroke:none;" d="M61 83L62 84L61 83M183 83L184 84L183 83M214 83L215 84L214 83M267 83L268 84L267 83z"/>
<path style="fill:#9c9c9c; stroke:none;" d="M21 84L22 85L21 84M59 84L60 85L59 84z"/>
<path style="fill:#906422; stroke:none;" d="M71 84L72 85L71 84z"/>
<path style="fill:#9c9c9c; stroke:none;" d="M84 84L85 85L84 84z"/>
<path style="fill:#906422; stroke:none;" d="M163 84L164 85L163 84M215 84L216 85L215 84z"/>
<path style="fill:#9c9c9c; stroke:none;" d="M265 84L266 85L265 84M22 85L23 86L22 85z"/>
<path style="fill:#906422; stroke:none;" d="M58 85L59 86L58 85z"/>
<path style="fill:#9c9c9c; stroke:none;" d="M72 85L73 86L72 85z"/>
<path style="fill:#906422; stroke:none;" d="M83 85L84 86L83 85z"/>
<path style="fill:#9c9c9c; stroke:none;" d="M115 85L116 86L115 85M133 85L134 86L133 85M182 85L183 86L182 85M217 85L218 86L217 85M264 85L265 86L264 85M24 86L25 87L24 86M56 86L57 87L56 86M81 86L82 87L81 86z"/>
<path style="fill:#906422; stroke:none;" d="M164 86L165 87L164 86z"/>
<path style="fill:#9c9c9c; stroke:none;" d="M219 86L220 87L219 86M262 86L263 87L262 86z"/>
<path style="fill:#906422; stroke:none;" d="M25 87L26 88L25 87z"/>
<path style="fill:#9c9c9c; stroke:none;" d="M54 87L55 88L54 87z"/>
<path style="fill:#906422; stroke:none;" d="M80 87L81 88L80 87M116 87L117 88L116 87M132 87L133 88L132 87z"/>
<path style="fill:#9c9c9c; stroke:none;" d="M165 87L166 88L165 87z"/>
<path style="fill:#906422; stroke:none;" d="M221 87L222 88L221 87z"/>
<path style="fill:#9c9c9c; stroke:none;" d="M222 87L223 88L222 87M260 87L261 88L260 87z"/>
<path style="fill:#906422; stroke:none;" d="M27 88L28 89L27 88z"/>
<path style="fill:#9c9c9c; stroke:none;" d="M28 88L29 89L28 88M51 88L52 89L51 88z"/>
<path style="fill:#906422; stroke:none;" d="M52 88L53 89L52 88z"/>
<path style="fill:#9c9c9c; stroke:none;" d="M75 88L76 89L75 88M78 88L79 89L78 88z"/>
<path style="fill:#906422; stroke:none;" d="M118 88L118 89L131 89L118 88M167 88L168 89L167 88z"/>
<path style="fill:#9c9c9c; stroke:none;" d="M168 88L168 89L178 89L168 88z"/>
<path style="fill:#906422; stroke:none;" d="M178.667 88.3333L179.333 88.6667L178.667 88.3333M224 88L225 89L224 88z"/>
<path style="fill:#9c9c9c; stroke:none;" d="M225 88L226 89L225 88M257 88L258 89L257 88z"/>
<path style="fill:#906422; stroke:none;" d="M258 88L259 89L258 88M30 89L31 90L30 89z"/>
<path style="fill:#9c9c9c; stroke:none;" d="M31 89L32 90L31 89M48 89L49 90L48 89z"/>
<path style="fill:#906422; stroke:none;" d="M49 89L50 90L49 89M228 89L229 90L228 89z"/>
<path style="fill:#9c9c9c; stroke:none;" d="M229.667 89.3333L230.333 89.6667L229.667 89.3333M253.667 89.3333L254.333 89.6667L253.667 89.3333z"/>
<path style="fill:#906422; stroke:none;" d="M255 89L256 90L255 89M34 90L34 91L37 91L34 90z"/>
<path style="fill:#9c9c9c; stroke:none;" d="M37 90L37 91L43 91L37 90z"/>
<path style="fill:#906422; stroke:none;" d="M43.6667 90.3333L44.3333 90.6667L43.6667 90.3333M233.667 90.3333L234.333 90.6667L233.667 90.3333z"/>
<path style="fill:#9c9c9c; stroke:none;" d="M235 90L235 91L238 91L235 90M247 90L247 91L250 91L247 90z"/>
<path style="fill:#906422; stroke:none;" d="M250 90L251 91L250 90M260 108L260 109L267 109L260 108z"/>
<path style="fill:#fe9901; stroke:none;" d="M235 121C244.14 120.811 269.846 113.317 274.396 125.044C278.516 135.664 266.935 150.353 266 161C272.679 159.125 276.845 152.82 280.124 147C284.107 139.932 292.804 119.924 286.397 112.43C283.512 109.056 278.012 109.218 274 108.915C263.335 108.109 238.936 108.21 235 121z"/>
<path style="fill:#906422; stroke:none;" d="M270 108L270 109L277 109L270 108M254.667 109.333L255.333 109.667L254.667 109.333M280.667 109.333L281.333 109.667L280.667 109.333M250.667 110.333L251.333 110.667L250.667 110.333M284 110L285 111L284 110M247 111L248 112L247 111M286 111L287 112L286 111M244 112L245 113L244 112M287 112L288 113L287 112M242 113L243 114L242 113M2 114L1 117L2 117L2 114z"/>
<path style="fill:#fe9901; stroke:none;" d="M3 114C2.15033 120.01 7.72882 123.27 12 126.739C22.4224 135.204 34.0084 142.714 46 148.752C96.3072 174.084 154.001 179.805 208 163.024C222.719 158.45 236.65 152.422 250 144.716C253.533 142.677 262.117 138.793 262.248 133.968C262.425 127.461 252.795 131.704 250 132.797C235.361 138.52 220.318 142.889 205 146.35C157.555 157.067 106.128 153.861 60 138.485C40.5043 131.986 22.401 119.589 3 114z"/>
<path style="fill:#906422; stroke:none;" d="M5.66667 114.333L6.33333 114.667L5.66667 114.333M240 114L241 115L240 114M7 115L8 116L7 115M238 115L239 116L238 115M288 115L288 121L289 121L288 115M9 116L10 117L9 116M237 116L238 117L237 116M11 117L12 118L11 117M235 117L236 118L235 117M2 118L3 119L2 118M13 118L14 119L13 118M3 119L4 120L3 119M15 119L16 120L15 119M234 119L235 120L234 119M252 119L252 120L267 120L252 119M4 120L5 121L4 120M16.6667 120.333L17.3333 120.667L16.6667 120.333M241 120L241 121L246 121L241 120M270 120L271 121L270 120M18 121L19 122L18 121M236 121L237 122L236 121M272 121L273 122L272 121M20 122L21 123L20 122M8 123L9 124L8 123M22 123L23 124L22 123M274 123L275 124L274 123M9 124L10 125L9 124M24 124L25 125L24 124M10 125L11 126L10 125M27 125L28 126L27 125M287.333 125.667L287.667 126.333L287.333 125.667M29 126L30 127L29 126M31 127L32 128L31 127M14 128L15 129L14 128M33 128L34 129L33 128M15 129L16 130L15 129M35.6667 129.333L36.3333 129.667L35.6667 129.333M257 129L257 130L260 130L257 129M38 130L39 131L38 130M255 130L256 131L255 130M261 130L262 131L261 130M274 130L274 133L275 133L274 130M286.333 130.667L286.667 131.333L286.333 130.667M18 131L19 132L18 131M40.6667 131.333L41.3333 131.667L40.6667 131.333M252.667 131.333L253.333 131.667L252.667 131.333M262 131L263 132L262 131M19 132L20 133L19 132M43 132L44 133L43 132M250 132L251 133L250 132M21 133L22 134L21 133M45.6667 133.333L46.3333 133.667L45.6667 133.333M247.667 133.333L248.333 133.667L247.667 133.333M285.333 133.667L285.667 134.333L285.333 133.667M22 134L23 135L22 134M48 134L49 135L48 134M245 134L246 135L245 134M51 135L52 136L51 135M242 135L243 136L242 135M262 135L263 136L262 135M273.333 135.667L273.667 136.333L273.333 135.667M25 136L26 137L25 136M54 136L55 137L54 136M239 136L240 137L239 136M284.333 136.667L284.667 137.333L284.333 136.667M26 137L27 138L26 137M57 137L58 138L57 137M236.667 137.333L237.333 137.667L236.667 137.333M260 137L261 138L260 137M28 138L29 139L28 138M59.6667 138.333L60.3333 138.667L59.6667 138.333M233.667 138.333L234.333 138.667L233.667 138.333M259 138L260 139L259 138M63 139L64 140L63 139M230 139L231 140L230 139M272 139L273 140L272 139M283.333 139.667L283.667 140.333L283.333 139.667M31 140L32 141L31 140M66.6667 140.333L67.3333 140.667L66.6667 140.333M227 140L228 141L227 140M256 140L257 141L256 140M33 141L34 142L33 141M69.6667 141.333L70.3333 141.667L69.6667 141.333M223.667 141.333L224.333 141.667L223.667 141.333M34 142L35 143L34 142M73.6667 142.333L74.3333 142.667L73.6667 142.333M220 142L221 143L220 142M253 142L254 143L253 142M271 142L272 143L271 142M282 142L283 143L282 142M36 143L37 144L36 143M77.6667 143.333L78.3333 143.667L77.6667 143.333M216.667 143.333L217.333 143.667L216.667 143.333M38 144L39 145L38 144M81.6667 144.333L82.3333 144.667L81.6667 144.333M212.667 144.333L213.333 144.667L212.667 144.333M250 144L251 145L250 144M281 144L282 145L281 144M39 145L40 146L39 145M85.6667 145.333L86.3333 145.667L85.6667 145.333M207.667 145.333L208.333 145.667L207.667 145.333M248 145L249 146L248 145M270 145L271 146L270 145M41 146L42 147L41 146M90.6667 146.333L91.3333 146.667L90.6667 146.333M202 146L202 147L205 147L202 146M246 146L247 147L246 146M280 146L281 147L280 146M43 147L44 148L43 147M95 147L95 148L98 148L95 147M197 147L197 148L200 148L197 147M245 147L246 148L245 147M45 148L46 149L45 148M100 148L100 149L104 149L100 148M191 148L191 149L194 149L191 148M243 148L244 149L243 148M269 148L270 149L269 148M47 149L48 150L47 149M107 149L107 150L111 150L107 149M184 149L184 150L188 150L184 149M241 149L242 150L241 149M278 149L279 150L278 149M49 150L50 151L49 150M114 150L114 151L119 151L114 150M176 150L176 151L181 151L176 150M239 150L240 151L239 150M268.333 150.667L268.667 151.333L268.333 150.667M51 151L52 152L51 151M124 151L124 152L131 152L124 151M164 151L164 152L171 152L164 151M237 151L238 152L237 151M277 151L278 152L277 151M53 152L54 153L53 152M143 152L143 153L153 153L143 152M235 152L236 153L235 152M276 152L277 153L276 152M55 153L56 154L55 153M233 153L234 154L233 153M267 153L268 154L267 153M57 154L58 155L57 154M231 154L232 155L231 154M59 155L60 156L59 155M228 155L229 156L228 155M62 156L63 157L62 156M226 156L227 157L226 156M266 156L267 157L266 156M273 156L274 157L273 156M64 157L65 158L64 157M223.667 157.333L224.333 157.667L223.667 157.333M272 157L273 158L272 157M67 158L68 159L67 158M221 158L222 159L221 158M265 158L265 161L266 161L265 158M271 158L272 159L271 158M69 159L70 160L69 159M218.667 159.333L219.333 159.667L218.667 159.333M270 159L271 160L270 159M72 160L73 161L72 160M215.667 160.333L216.333 160.667L215.667 160.333M75 161L76 162L75 161M213 161L214 162L213 161M77.6667 162.333L78.3333 162.667L77.6667 162.333M209.667 162.333L210.333 162.667L209.667 162.333M81 163L82 164L81 163M206.667 163.333L207.333 163.667L206.667 163.333M84.6667 164.333L85.3333 164.667L84.6667 164.333M203.667 164.333L204.333 164.667L203.667 164.333M87.6667 165.333L88.3333 165.667L87.6667 165.333M199.667 165.333L200.333 165.667L199.667 165.333M91.6667 166.333L92.3333 166.667L91.6667 166.333M195.667 166.333L196.333 166.667L195.667 166.333M95.6667 167.333L96.3333 167.667L95.6667 167.333M191.667 167.333L192.333 167.667L191.667 167.333M100.667 168.333L101.333 168.667L100.667 168.333M186.667 168.333L187.333 168.667L186.667 168.333M105 169L105 170L108 170L105 169M180 169L180 170L183 170L180 169M111 170L111 171L114 171L111 170M174 170L174 171L177 171L174 170M118 171L118 172L122 172L118 171M166 171L166 172L170 172L166 171M128 172L128 173L136 173L128 172M153 172L153 173L161 173L153 172z"/>
</svg>
